<svg width="296" height="107" viewBox="0 0 296 107" fill="none" xmlns="http://www.w3.org/2000/svg">
<rect width="291" height="107" fill="#133157"/>
<path d="M133.075 28.6562H129.342C129.274 28.1733 129.135 27.7443 128.925 27.3693C128.715 26.9886 128.445 26.6648 128.115 26.3977C127.786 26.1307 127.405 25.9261 126.973 25.7841C126.547 25.642 126.084 25.571 125.584 25.571C124.68 25.571 123.894 25.7955 123.223 26.2443C122.553 26.6875 122.033 27.3352 121.663 28.1875C121.294 29.0341 121.109 30.0625 121.109 31.2727C121.109 32.517 121.294 33.5625 121.663 34.4091C122.038 35.2557 122.561 35.8949 123.232 36.3267C123.902 36.7585 124.678 36.9744 125.558 36.9744C126.053 36.9744 126.51 36.9091 126.93 36.7784C127.357 36.6477 127.734 36.4574 128.064 36.2074C128.394 35.9517 128.666 35.642 128.882 35.2784C129.104 34.9148 129.257 34.5 129.342 34.0341L133.075 34.0511C132.979 34.8523 132.737 35.625 132.351 36.3693C131.97 37.108 131.456 37.7699 130.808 38.3551C130.166 38.9347 129.399 39.3949 128.507 39.7358C127.621 40.071 126.618 40.2386 125.499 40.2386C123.942 40.2386 122.55 39.8864 121.323 39.1818C120.101 38.4773 119.135 37.4574 118.425 36.1222C117.72 34.7869 117.368 33.1705 117.368 31.2727C117.368 29.3693 117.726 27.75 118.442 26.4148C119.158 25.0795 120.129 24.0625 121.357 23.3636C122.584 22.6591 123.965 22.3068 125.499 22.3068C126.51 22.3068 127.448 22.4489 128.311 22.733C129.18 23.017 129.95 23.4318 130.621 23.9773C131.291 24.517 131.837 25.179 132.257 25.9631C132.683 26.7472 132.956 27.6449 133.075 28.6562ZM139.412 22.5455V40H135.722V22.5455H139.412ZM141.783 25.5881V22.5455H156.119V25.5881H150.775V40H147.127V25.5881H141.783ZM162.17 22.5455V40H158.479V22.5455H162.17ZM165.019 40V37.8097L173.729 25.5881H165.001V22.5455H178.365V24.7358L169.646 36.9574H178.382V40H165.019ZM181.214 40V22.5455H192.975V25.5881H184.904V29.7472H192.37V32.7898H184.904V36.9574H193.009V40H181.214ZM210.509 22.5455V40H207.321L199.727 29.0142H199.599V40H195.909V22.5455H199.148L206.682 33.5227H206.835V22.5455H210.509ZM117.675 69V51.5455H124.561C125.879 51.5455 127.004 51.7812 127.936 52.2528C128.874 52.7187 129.587 53.3807 130.075 54.2386C130.57 55.0909 130.817 56.0937 130.817 57.2472C130.817 58.4062 130.567 59.4034 130.067 60.2386C129.567 61.0682 128.842 61.7045 127.894 62.1477C126.95 62.5909 125.808 62.8125 124.467 62.8125H119.857V59.8466H123.871C124.575 59.8466 125.161 59.75 125.626 59.5568C126.092 59.3636 126.439 59.0739 126.666 58.6875C126.899 58.3011 127.016 57.821 127.016 57.2472C127.016 56.6676 126.899 56.179 126.666 55.7812C126.439 55.3835 126.09 55.0824 125.618 54.8778C125.152 54.6676 124.564 54.5625 123.854 54.5625H121.365V69H117.675ZM127.101 61.0568L131.439 69H127.365L123.121 61.0568H127.101ZM133.425 69V51.5455H145.186V54.5881H137.115V58.7472H144.581V61.7898H137.115V65.9574H145.22V69H133.425ZM148.12 69V51.5455H155.006C156.33 51.5455 157.458 51.7983 158.39 52.304C159.322 52.804 160.032 53.5 160.521 54.392C161.015 55.2784 161.262 56.3011 161.262 57.4602C161.262 58.6193 161.012 59.642 160.512 60.5284C160.012 61.4148 159.288 62.1051 158.339 62.5994C157.396 63.0937 156.254 63.3409 154.913 63.3409H150.523V60.3835H154.316C155.026 60.3835 155.612 60.2614 156.072 60.017C156.538 59.767 156.884 59.4233 157.112 58.9858C157.345 58.5426 157.461 58.0341 157.461 57.4602C157.461 56.8807 157.345 56.375 157.112 55.9432C156.884 55.5057 156.538 55.1676 156.072 54.929C155.606 54.6847 155.015 54.5625 154.299 54.5625H151.81V69H148.12ZM179.699 60.2727C179.699 62.1761 179.338 63.7955 178.617 65.1307C177.901 66.4659 176.923 67.4858 175.685 68.1903C174.452 68.8892 173.065 69.2386 171.526 69.2386C169.974 69.2386 168.582 68.8864 167.349 68.1818C166.117 67.4773 165.142 66.4574 164.426 65.1222C163.71 63.7869 163.352 62.1705 163.352 60.2727C163.352 58.3693 163.71 56.75 164.426 55.4148C165.142 54.0795 166.117 53.0625 167.349 52.3636C168.582 51.6591 169.974 51.3068 171.526 51.3068C173.065 51.3068 174.452 51.6591 175.685 52.3636C176.923 53.0625 177.901 54.0795 178.617 55.4148C179.338 56.75 179.699 58.3693 179.699 60.2727ZM175.957 60.2727C175.957 59.0398 175.773 58 175.403 57.1534C175.04 56.3068 174.526 55.6648 173.861 55.2273C173.196 54.7898 172.418 54.571 171.526 54.571C170.634 54.571 169.855 54.7898 169.19 55.2273C168.526 55.6648 168.009 56.3068 167.639 57.1534C167.276 58 167.094 59.0398 167.094 60.2727C167.094 61.5057 167.276 62.5455 167.639 63.392C168.009 64.2386 168.526 64.8807 169.19 65.3182C169.855 65.7557 170.634 65.9744 171.526 65.9744C172.418 65.9744 173.196 65.7557 173.861 65.3182C174.526 64.8807 175.04 64.2386 175.403 63.392C175.773 62.5455 175.957 61.5057 175.957 60.2727ZM182.433 69V51.5455H189.319C190.637 51.5455 191.762 51.7812 192.694 52.2528C193.631 52.7187 194.345 53.3807 194.833 54.2386C195.327 55.0909 195.575 56.0937 195.575 57.2472C195.575 58.4062 195.325 59.4034 194.825 60.2386C194.325 61.0682 193.6 61.7045 192.651 62.1477C191.708 62.5909 190.566 62.8125 189.225 62.8125H184.614V59.8466H188.629C189.333 59.8466 189.918 59.75 190.384 59.5568C190.85 59.3636 191.197 59.0739 191.424 58.6875C191.657 58.3011 191.773 57.821 191.773 57.2472C191.773 56.6676 191.657 56.179 191.424 55.7812C191.197 55.3835 190.847 55.0824 190.376 54.8778C189.91 54.6676 189.322 54.5625 188.612 54.5625H186.123V69H182.433ZM191.859 61.0568L196.197 69H192.123L187.879 61.0568H191.859ZM197.518 54.5881V51.5455H211.853V54.5881H206.509V69H202.862V54.5881H197.518ZM214.214 69V51.5455H225.975V54.5881H217.904V58.7472H225.37V61.7898H217.904V65.9574H226.009V69H214.214ZM228.909 69V51.5455H235.796C237.114 51.5455 238.239 51.7812 239.171 52.2528C240.108 52.7187 240.821 53.3807 241.31 54.2386C241.804 55.0909 242.051 56.0937 242.051 57.2472C242.051 58.4062 241.801 59.4034 241.301 60.2386C240.801 61.0682 240.077 61.7045 239.128 62.1477C238.185 62.5909 237.043 62.8125 235.702 62.8125H231.091V59.8466H235.105C235.81 59.8466 236.395 59.75 236.861 59.5568C237.327 59.3636 237.673 59.0739 237.901 58.6875C238.134 58.3011 238.25 57.821 238.25 57.2472C238.25 56.6676 238.134 56.179 237.901 55.7812C237.673 55.3835 237.324 55.0824 236.852 54.8778C236.386 54.6676 235.798 54.5625 235.088 54.5625H232.599V69H228.909ZM238.335 61.0568L242.673 69H238.599L234.355 61.0568H238.335Z" fill="white"/>
<path d="M117.479 89V78.0909H124.02V79.2628H118.8V82.9489H123.53V84.1207H118.8V89H117.479ZM125.368 89H123.983L127.988 78.0909H129.352L133.358 89H131.973L128.713 79.8168H128.628L125.368 89ZM125.879 84.7386H131.461V85.9105H125.879V84.7386ZM141.023 80.8182C140.959 80.2784 140.7 79.8594 140.245 79.5611C139.791 79.2628 139.233 79.1136 138.573 79.1136C138.09 79.1136 137.667 79.1918 137.305 79.348C136.946 79.5043 136.666 79.7191 136.463 79.9925C136.264 80.266 136.165 80.5767 136.165 80.9247C136.165 81.2159 136.234 81.4663 136.373 81.6758C136.515 81.8817 136.696 82.054 136.916 82.1925C137.136 82.3274 137.367 82.4393 137.608 82.5281C137.85 82.6133 138.072 82.6825 138.274 82.7358L139.382 83.0341C139.666 83.1087 139.982 83.2116 140.33 83.343C140.682 83.4744 141.017 83.6538 141.337 83.881C141.66 84.1048 141.927 84.3924 142.136 84.744C142.346 85.0955 142.45 85.527 142.45 86.0384C142.45 86.6278 142.296 87.1605 141.987 87.6364C141.682 88.1122 141.234 88.4904 140.645 88.771C140.059 89.0515 139.347 89.1918 138.509 89.1918C137.727 89.1918 137.051 89.0657 136.479 88.8136C135.911 88.5614 135.463 88.2099 135.137 87.7589C134.814 87.3079 134.631 86.7841 134.588 86.1875H135.952C135.987 86.5994 136.126 86.9403 136.367 87.2102C136.612 87.4766 136.921 87.6754 137.294 87.8068C137.671 87.9347 138.075 87.9986 138.509 87.9986C139.013 87.9986 139.466 87.9169 139.867 87.7536C140.268 87.5866 140.586 87.3558 140.82 87.0611C141.055 86.7628 141.172 86.4148 141.172 86.017C141.172 85.6548 141.071 85.3601 140.868 85.1328C140.666 84.9055 140.4 84.7209 140.069 84.5788C139.739 84.4368 139.382 84.3125 138.999 84.206L137.656 83.8224C136.804 83.5774 136.129 83.2276 135.632 82.7731C135.135 82.3185 134.886 81.7237 134.886 80.9886C134.886 80.3778 135.052 79.8452 135.382 79.3906C135.716 78.9325 136.163 78.5774 136.724 78.3253C137.289 78.0696 137.919 77.9418 138.615 77.9418C139.318 77.9418 139.943 78.0678 140.49 78.32C141.037 78.5685 141.47 78.9094 141.79 79.3427C142.113 79.7759 142.283 80.2678 142.301 80.8182H141.023ZM144.026 79.2628V78.0909H152.208V79.2628H148.777V89H147.456V79.2628H144.026ZM158.913 89H157.528L161.533 78.0909H162.897L166.903 89H165.518L162.258 79.8168H162.172L158.913 89ZM159.424 84.7386H165.006V85.9105H159.424V84.7386ZM177.252 78.0909V89H175.974L170.029 80.4347H169.923V89H168.602V78.0909H169.88L175.846 86.6776H175.953V78.0909H177.252ZM183.262 89H179.896V78.0909H183.411C184.47 78.0909 185.375 78.3093 186.128 78.7461C186.881 79.1793 187.458 79.8026 187.859 80.6158C188.26 81.4254 188.461 82.3949 188.461 83.5241C188.461 84.6605 188.259 85.6388 187.854 86.4592C187.449 87.2759 186.86 87.9045 186.085 88.3448C185.311 88.7816 184.37 89 183.262 89ZM181.217 87.8281H183.177C184.079 87.8281 184.826 87.6541 185.42 87.3061C186.013 86.9581 186.455 86.4627 186.746 85.82C187.037 85.1772 187.183 84.4119 187.183 83.5241C187.183 82.6435 187.039 81.8853 186.751 81.2496C186.464 80.6104 186.034 80.1204 185.462 79.7795C184.89 79.435 184.178 79.2628 183.326 79.2628H181.217V87.8281ZM203.674 81.5H202.353C202.275 81.12 202.138 80.7862 201.943 80.4986C201.751 80.2109 201.517 79.9695 201.24 79.7741C200.966 79.5753 200.663 79.4261 200.329 79.3267C199.995 79.2273 199.647 79.1776 199.285 79.1776C198.624 79.1776 198.026 79.3445 197.49 79.6783C196.957 80.0121 196.533 80.5039 196.217 81.1538C195.904 81.8036 195.748 82.6009 195.748 83.5455C195.748 84.4901 195.904 85.2873 196.217 85.9371C196.533 86.587 196.957 87.0788 197.49 87.4126C198.026 87.7464 198.624 87.9134 199.285 87.9134C199.647 87.9134 199.995 87.8636 200.329 87.7642C200.663 87.6648 200.966 87.5174 201.24 87.3221C201.517 87.1232 201.751 86.88 201.943 86.5923C202.138 86.3011 202.275 85.9673 202.353 85.5909H203.674C203.575 86.1484 203.394 86.6474 203.131 87.0877C202.868 87.5281 202.541 87.9027 202.151 88.2116C201.76 88.517 201.322 88.7496 200.835 88.9094C200.352 89.0692 199.835 89.1491 199.285 89.1491C198.355 89.1491 197.527 88.9219 196.803 88.4673C196.078 88.0128 195.508 87.3665 195.093 86.5284C194.677 85.6903 194.47 84.696 194.47 83.5455C194.47 82.3949 194.677 81.4006 195.093 80.5625C195.508 79.7244 196.078 79.0781 196.803 78.6236C197.527 78.169 198.355 77.9418 199.285 77.9418C199.835 77.9418 200.352 78.0217 200.835 78.1815C201.322 78.3413 201.76 78.5756 202.151 78.8846C202.541 79.19 202.868 79.5629 203.131 80.0032C203.394 80.44 203.575 80.9389 203.674 81.5ZM215.013 83.5455C215.013 84.696 214.806 85.6903 214.39 86.5284C213.975 87.3665 213.405 88.0128 212.68 88.4673C211.956 88.9219 211.128 89.1491 210.198 89.1491C209.268 89.1491 208.44 88.9219 207.716 88.4673C206.991 88.0128 206.421 87.3665 206.006 86.5284C205.59 85.6903 205.383 84.696 205.383 83.5455C205.383 82.3949 205.59 81.4006 206.006 80.5625C206.421 79.7244 206.991 79.0781 207.716 78.6236C208.44 78.169 209.268 77.9418 210.198 77.9418C211.128 77.9418 211.956 78.169 212.68 78.6236C213.405 79.0781 213.975 79.7244 214.39 80.5625C214.806 81.4006 215.013 82.3949 215.013 83.5455ZM213.735 83.5455C213.735 82.6009 213.577 81.8036 213.261 81.1538C212.948 80.5039 212.524 80.0121 211.988 79.6783C211.455 79.3445 210.859 79.1776 210.198 79.1776C209.538 79.1776 208.939 79.3445 208.403 79.6783C207.87 80.0121 207.446 80.5039 207.13 81.1538C206.817 81.8036 206.661 82.6009 206.661 83.5455C206.661 84.4901 206.817 85.2873 207.13 85.9371C207.446 86.587 207.87 87.0788 208.403 87.4126C208.939 87.7464 209.538 87.9134 210.198 87.9134C210.859 87.9134 211.455 87.7464 211.988 87.4126C212.524 87.0788 212.948 86.587 213.261 85.9371C213.577 85.2873 213.735 84.4901 213.735 83.5455ZM225.885 78.0909V89H224.607L218.662 80.4347H218.556V89H217.235V78.0909H218.513L224.479 86.6776H224.585V78.0909H225.885ZM228.976 78.0909L232.215 87.2741H232.342L235.581 78.0909H236.966L232.96 89H231.597L227.591 78.0909H228.976ZM238.665 89V78.0909H245.249V79.2628H239.986V82.9489H244.908V84.1207H239.986V87.8281H245.334V89H238.665ZM256.281 78.0909V89H255.002L249.058 80.4347H248.951V89H247.63V78.0909H248.909L254.874 86.6776H254.981V78.0909H256.281ZM260.245 78.0909V89H258.924V78.0909H260.245ZM262.894 89V78.0909H269.478V79.2628H264.215V82.9489H269.137V84.1207H264.215V87.8281H269.563V89H262.894ZM280.509 78.0909V89H279.231L273.286 80.4347H273.18V89H271.859V78.0909H273.137L279.103 86.6776H279.209V78.0909H280.509ZM282.556 79.2628V78.0909H290.738V79.2628H287.307V89H285.986V79.2628H282.556Z" fill="white"/>
<path d="M25.4732 79V37L34.1341 32.5V73.5L38.2098 76V30L47.3801 24.5V80L51.9653 82.5V22L61.1357 17V99L25.4732 79Z" fill="white" stroke="white" stroke-opacity="0.67" stroke-width="0.5"/>
<path d="M66.2303 99.5L101.893 79.5L101.893 37.5L66.2303 17L66.2303 99.5Z" fill="#FEB222" stroke="#FEB222" stroke-width="2"/>
<path d="M75.9101 84V35L91.7035 44V75L75.9101 84Z" fill="#133157" stroke="#FEB222" stroke-width="2"/>
</svg>
